<svg width="155" height="46" viewBox="0 0 155 46" fill="none" xmlns="http://www.w3.org/2000/svg">
<path d="M22.9997 0C35.7026 0 45.9997 10.2971 45.9997 23V39.1C45.9997 40.93 45.2728 42.685 43.9788 43.979C42.6848 45.273 40.9297 46 39.0997 46H24.1497V35.9099C24.1497 33.6076 24.29 31.2225 25.4975 29.2629C26.362 27.8586 27.5185 26.6566 28.8884 25.7385C30.2583 24.8204 31.8096 24.2077 33.4371 23.9419L33.8776 23.8706C34.0592 23.8085 34.2168 23.6912 34.3284 23.5351C34.44 23.379 34.5 23.1919 34.5 23C34.5 22.8081 34.44 22.621 34.3284 22.4649C34.2168 22.3088 34.0592 22.1915 33.8776 22.1294L33.4371 22.0581C31.0591 21.6697 28.8632 20.5441 27.1594 18.8403C25.4556 17.1365 24.3301 14.9406 23.9416 12.5626L23.8703 12.1222C23.8082 11.9406 23.6909 11.7829 23.5348 11.6713C23.3787 11.5597 23.1916 11.4997 22.9997 11.4997C22.8078 11.4997 22.6208 11.5597 22.4647 11.6713C22.3086 11.7829 22.1913 11.9406 22.1292 12.1222L22.0579 12.5626C21.7922 14.1902 21.1795 15.7415 20.2614 17.1114C19.3433 18.4814 18.1412 19.6378 16.7368 20.5022C14.7772 21.7097 12.3921 21.85 10.0898 21.85H0.0273438C0.628794 9.68185 10.6832 0 22.9997 0Z" fill="#5F6FFF"/>
<path d="M0 24.15H10.0901C12.3924 24.15 14.7775 24.2903 16.7371 25.4978C18.2689 26.4417 19.5583 27.7311 20.5022 29.2629C21.7097 31.2225 21.85 33.6076 21.85 35.9099V46H6.9C5.07001 46 3.31496 45.273 2.02096 43.979C0.726962 42.685 0 40.93 0 39.1L0 24.15ZM46 2.3C46 2.91 45.7577 3.49501 45.3263 3.92635C44.895 4.35768 44.31 4.6 43.7 4.6C43.09 4.6 42.505 4.35768 42.0737 3.92635C41.6423 3.49501 41.4 2.91 41.4 2.3C41.4 1.69 41.6423 1.10499 42.0737 0.673654C42.505 0.242321 43.09 0 43.7 0C44.31 0 44.895 0.242321 45.3263 0.673654C45.7577 1.10499 46 1.69 46 2.3Z" fill="#5F6FFF"/>
<path d="M64.61 37V32.886H70.696C72.2373 32.886 73.586 32.5687 74.742 31.934C75.898 31.2767 76.7933 30.3587 77.428 29.18C78.0853 28.0013 78.414 26.6073 78.414 24.998C78.414 23.434 78.0853 22.074 77.428 20.918C76.7707 19.7393 75.864 18.8327 74.708 18.198C73.552 17.5407 72.2147 17.212 70.696 17.212H64.508V13.098H70.764C72.532 13.098 74.164 13.3927 75.66 13.982C77.1787 14.5713 78.4933 15.41 79.604 16.498C80.7373 17.5633 81.61 18.8213 82.222 20.272C82.8567 21.7227 83.174 23.3093 83.174 25.032C83.174 26.7547 82.8567 28.3527 82.222 29.826C81.61 31.2767 80.7487 32.546 79.638 33.634C78.5273 34.6993 77.2127 35.5267 75.694 36.116C74.198 36.7053 72.5773 37 70.832 37H64.61ZM61.448 37V13.098H66.072V37H61.448ZM98.0344 37.374C96.2891 37.374 94.6571 37.0567 93.1384 36.422C91.6424 35.7873 90.3277 34.9147 89.1944 33.804C88.0837 32.6707 87.2111 31.356 86.5764 29.86C85.9417 28.3413 85.6244 26.7207 85.6244 24.998C85.6244 23.2753 85.9304 21.6773 86.5424 20.204C87.1771 18.708 88.0497 17.4047 89.1604 16.294C90.2937 15.1607 91.6084 14.288 93.1044 13.676C94.6004 13.0413 96.2211 12.724 97.9664 12.724C99.7344 12.724 101.366 13.0413 102.862 13.676C104.358 14.288 105.662 15.1607 106.772 16.294C107.906 17.4047 108.79 18.708 109.424 20.204C110.059 21.7 110.376 23.3093 110.376 25.032C110.376 26.7547 110.059 28.364 109.424 29.86C108.79 31.356 107.906 32.6707 106.772 33.804C105.662 34.9147 104.358 35.7873 102.862 36.422C101.389 37.0567 99.7797 37.374 98.0344 37.374ZM97.9664 33.056C99.5077 33.056 100.845 32.716 101.978 32.036C103.112 31.356 103.996 30.4153 104.63 29.214C105.288 28.0127 105.616 26.6073 105.616 24.998C105.616 23.8193 105.435 22.7427 105.072 21.768C104.71 20.7933 104.188 19.9547 103.508 19.252C102.828 18.5267 102.024 17.9713 101.094 17.586C100.165 17.2007 99.1224 17.008 97.9664 17.008C96.4704 17.008 95.1444 17.348 93.9884 18.028C92.8551 18.6853 91.9597 19.6147 91.3024 20.816C90.6677 22.0173 90.3504 23.4113 90.3504 24.998C90.3504 26.1993 90.5317 27.2987 90.8944 28.296C91.2797 29.2933 91.8011 30.1433 92.4584 30.846C93.1384 31.5487 93.9431 32.0927 94.8724 32.478C95.8244 32.8633 96.8557 33.056 97.9664 33.056ZM125.425 37.34C123.679 37.34 122.059 37.034 120.563 36.422C119.067 35.7873 117.752 34.9147 116.619 33.804C115.508 32.6707 114.647 31.356 114.035 29.86C113.445 28.364 113.151 26.7547 113.151 25.032C113.151 23.3093 113.445 21.7 114.035 20.204C114.647 18.708 115.508 17.4047 116.619 16.294C117.752 15.1833 119.055 14.3107 120.529 13.676C122.025 13.0413 123.657 12.724 125.425 12.724C127.329 12.724 129.006 13.0413 130.457 13.676C131.907 14.288 133.188 15.138 134.299 16.226L131.171 19.354C130.513 18.6287 129.709 18.062 128.757 17.654C127.805 17.246 126.694 17.042 125.425 17.042C124.314 17.042 123.294 17.2347 122.365 17.62C121.458 17.9827 120.665 18.5267 119.985 19.252C119.305 19.9547 118.783 20.8047 118.421 21.802C118.058 22.7767 117.877 23.8533 117.877 25.032C117.877 26.2333 118.058 27.3213 118.421 28.296C118.783 29.2707 119.305 30.1207 119.985 30.846C120.665 31.5487 121.458 32.0927 122.365 32.478C123.294 32.8633 124.314 33.056 125.425 33.056C126.762 33.056 127.907 32.852 128.859 32.444C129.833 32.036 130.649 31.458 131.307 30.71L134.435 33.838C133.324 34.9487 132.032 35.81 130.559 36.422C129.085 37.034 127.374 37.34 125.425 37.34ZM136.935 27.548V23.672H152.337V27.548H136.935ZM142.681 17.518H146.625V33.668H142.681V17.518Z" fill="white"/>
</svg>
