<svg width="153" height="46" viewBox="0 0 153 46" fill="none" xmlns="http://www.w3.org/2000/svg">
<path d="M22.9997 0C35.7026 0 45.9997 10.2971 45.9997 23V39.1C45.9997 40.93 45.2728 42.685 43.9788 43.979C42.6848 45.273 40.9297 46 39.0997 46H24.1497V35.9099C24.1497 33.6076 24.29 31.2225 25.4975 29.2629C26.362 27.8586 27.5185 26.6566 28.8884 25.7385C30.2583 24.8204 31.8096 24.2077 33.4371 23.9419L33.8776 23.8706C34.0592 23.8085 34.2168 23.6912 34.3284 23.5351C34.44 23.379 34.5 23.1919 34.5 23C34.5 22.8081 34.44 22.621 34.3284 22.4649C34.2168 22.3088 34.0592 22.1915 33.8776 22.1294L33.4371 22.0581C31.0591 21.6697 28.8632 20.5441 27.1594 18.8403C25.4556 17.1365 24.3301 14.9406 23.9416 12.5626L23.8703 12.1222C23.8082 11.9406 23.6909 11.7829 23.5348 11.6713C23.3787 11.5597 23.1916 11.4997 22.9997 11.4997C22.8078 11.4997 22.6208 11.5597 22.4647 11.6713C22.3086 11.7829 22.1913 11.9406 22.1292 12.1222L22.0579 12.5626C21.7922 14.1902 21.1795 15.7415 20.2614 17.1114C19.3433 18.4814 18.1412 19.6378 16.7368 20.5022C14.7772 21.7097 12.3921 21.85 10.0898 21.85H0.0273438C0.628794 9.68185 10.6832 0 22.9997 0Z" fill="#5F6FFF"/>
<path d="M0 24.15H10.0901C12.3924 24.15 14.7775 24.2903 16.7371 25.4978C18.2689 26.4417 19.5583 27.7311 20.5022 29.2629C21.7097 31.2225 21.85 33.6076 21.85 35.9099V46H6.9C5.07001 46 3.31496 45.273 2.02096 43.979C0.726962 42.685 0 40.93 0 39.1L0 24.15ZM46 2.3C46 2.91 45.7577 3.49501 45.3263 3.92635C44.895 4.35768 44.31 4.6 43.7 4.6C43.09 4.6 42.505 4.35768 42.0737 3.92635C41.6423 3.49501 41.4 2.91 41.4 2.3C41.4 1.69 41.6423 1.10499 42.0737 0.673654C42.505 0.242321 43.09 0 43.7 0C44.31 0 44.895 0.242321 45.3263 0.673654C45.7577 1.10499 46 1.69 46 2.3Z" fill="#5F6FFF"/>
<path d="M62.61 37V32.886H68.696C70.2373 32.886 71.586 32.5687 72.742 31.934C73.898 31.2767 74.7933 30.3587 75.428 29.18C76.0853 28.0013 76.414 26.6073 76.414 24.998C76.414 23.434 76.0853 22.074 75.428 20.918C74.7707 19.7393 73.864 18.8327 72.708 18.198C71.552 17.5407 70.2147 17.212 68.696 17.212H62.508V13.098H68.764C70.532 13.098 72.164 13.3927 73.66 13.982C75.1787 14.5713 76.4933 15.41 77.604 16.498C78.7373 17.5633 79.61 18.8213 80.222 20.272C80.8567 21.7227 81.174 23.3093 81.174 25.032C81.174 26.7547 80.8567 28.3527 80.222 29.826C79.61 31.2767 78.7487 32.546 77.638 33.634C76.5273 34.6993 75.2127 35.5267 73.694 36.116C72.198 36.7053 70.5773 37 68.832 37H62.61ZM59.448 37V13.098H64.072V37H59.448ZM96.0344 37.374C94.2891 37.374 92.6571 37.0567 91.1384 36.422C89.6424 35.7873 88.3277 34.9147 87.1944 33.804C86.0837 32.6707 85.2111 31.356 84.5764 29.86C83.9417 28.3413 83.6244 26.7207 83.6244 24.998C83.6244 23.2753 83.9304 21.6773 84.5424 20.204C85.1771 18.708 86.0497 17.4047 87.1604 16.294C88.2937 15.1607 89.6084 14.288 91.1044 13.676C92.6004 13.0413 94.2211 12.724 95.9664 12.724C97.7344 12.724 99.3664 13.0413 100.862 13.676C102.358 14.288 103.662 15.1607 104.772 16.294C105.906 17.4047 106.79 18.708 107.424 20.204C108.059 21.7 108.376 23.3093 108.376 25.032C108.376 26.7547 108.059 28.364 107.424 29.86C106.79 31.356 105.906 32.6707 104.772 33.804C103.662 34.9147 102.358 35.7873 100.862 36.422C99.3891 37.0567 97.7797 37.374 96.0344 37.374ZM95.9664 33.056C97.5077 33.056 98.8451 32.716 99.9784 32.036C101.112 31.356 101.996 30.4153 102.63 29.214C103.288 28.0127 103.616 26.6073 103.616 24.998C103.616 23.8193 103.435 22.7427 103.072 21.768C102.71 20.7933 102.188 19.9547 101.508 19.252C100.828 18.5267 100.024 17.9713 99.0944 17.586C98.1651 17.2007 97.1224 17.008 95.9664 17.008C94.4704 17.008 93.1444 17.348 91.9884 18.028C90.8551 18.6853 89.9597 19.6147 89.3024 20.816C88.6677 22.0173 88.3504 23.4113 88.3504 24.998C88.3504 26.1993 88.5317 27.2987 88.8944 28.296C89.2797 29.2933 89.8011 30.1433 90.4584 30.846C91.1384 31.5487 91.9431 32.0927 92.8724 32.478C93.8244 32.8633 94.8557 33.056 95.9664 33.056ZM123.425 37.34C121.679 37.34 120.059 37.034 118.563 36.422C117.067 35.7873 115.752 34.9147 114.619 33.804C113.508 32.6707 112.647 31.356 112.035 29.86C111.445 28.364 111.151 26.7547 111.151 25.032C111.151 23.3093 111.445 21.7 112.035 20.204C112.647 18.708 113.508 17.4047 114.619 16.294C115.752 15.1833 117.055 14.3107 118.529 13.676C120.025 13.0413 121.657 12.724 123.425 12.724C125.329 12.724 127.006 13.0413 128.457 13.676C129.907 14.288 131.188 15.138 132.299 16.226L129.171 19.354C128.513 18.6287 127.709 18.062 126.757 17.654C125.805 17.246 124.694 17.042 123.425 17.042C122.314 17.042 121.294 17.2347 120.365 17.62C119.458 17.9827 118.665 18.5267 117.985 19.252C117.305 19.9547 116.783 20.8047 116.421 21.802C116.058 22.7767 115.877 23.8533 115.877 25.032C115.877 26.2333 116.058 27.3213 116.421 28.296C116.783 29.2707 117.305 30.1207 117.985 30.846C118.665 31.5487 119.458 32.0927 120.365 32.478C121.294 32.8633 122.314 33.056 123.425 33.056C124.762 33.056 125.907 32.852 126.859 32.444C127.833 32.036 128.649 31.458 129.307 30.71L132.435 33.838C131.324 34.9487 130.032 35.81 128.559 36.422C127.085 37.034 125.374 37.34 123.425 37.34ZM134.935 27.548V23.672H150.337V27.548H134.935ZM140.681 17.518H144.625V33.668H140.681V17.518Z" fill="#000B6D"/>
</svg>
