<svg width="182" height="46" viewBox="0 0 182 46" fill="none" xmlns="http://www.w3.org/2000/svg">
<path d="M22.9997 0C35.7026 0 45.9997 10.2971 45.9997 23V39.1C45.9997 40.93 45.2728 42.685 43.9788 43.979C42.6848 45.273 40.9297 46 39.0997 46H24.1497V35.9099C24.1497 33.6076 24.29 31.2225 25.4975 29.2629C26.362 27.8586 27.5185 26.6566 28.8884 25.7385C30.2583 24.8204 31.8096 24.2077 33.4371 23.9419L33.8776 23.8706C34.0592 23.8085 34.2168 23.6912 34.3284 23.5351C34.44 23.379 34.5 23.1919 34.5 23C34.5 22.8081 34.44 22.621 34.3284 22.4649C34.2168 22.3088 34.0592 22.1915 33.8776 22.1294L33.4371 22.0581C31.0591 21.6697 28.8632 20.5441 27.1594 18.8403C25.4556 17.1365 24.3301 14.9406 23.9416 12.5626L23.8703 12.1222C23.8082 11.9406 23.6909 11.7829 23.5348 11.6713C23.3787 11.5597 23.1916 11.4997 22.9997 11.4997C22.8078 11.4997 22.6208 11.5597 22.4647 11.6713C22.3086 11.7829 22.1913 11.9406 22.1292 12.1222L22.0579 12.5626C21.7922 14.1902 21.1795 15.7415 20.2614 17.1114C19.3433 18.4814 18.1412 19.6378 16.7368 20.5022C14.7772 21.7097 12.3921 21.85 10.0898 21.85H0.0273438C0.628794 9.68185 10.6832 0 22.9997 0Z" fill="#5F6FFF"/>
<path d="M0 24.15H10.0901C12.3924 24.15 14.7775 24.2903 16.7371 25.4978C18.2689 26.4417 19.5583 27.7311 20.5022 29.2629C21.7097 31.2225 21.85 33.6076 21.85 35.9099V46H6.9C5.07001 46 3.31496 45.273 2.02096 43.979C0.726962 42.685 0 40.93 0 39.1L0 24.15ZM46 2.3C46 2.91 45.7577 3.49501 45.3263 3.92635C44.895 4.35768 44.31 4.6 43.7 4.6C43.09 4.6 42.505 4.35768 42.0737 3.92635C41.6423 3.49501 41.4 2.91 41.4 2.3C41.4 1.69 41.6423 1.10499 42.0737 0.673654C42.505 0.242321 43.09 0 43.7 0C44.31 0 44.895 0.242321 45.3263 0.673654C45.7577 1.10499 46 1.69 46 2.3Z" fill="#5F6FFF"/>
<g clip-path="url(#clip0_1_12)">
<path d="M0 0C15.18 0 30.36 0 46 0C46 15.18 46 30.36 46 46C30.82 46 15.64 46 0 46C0 30.82 0 15.64 0 0Z" fill="#000304"/>
<path d="M26 26C30.29 26 34.58 26 39 26C37.8338 31.8311 36.2599 34.4015 31.4375 37.8125C29 39 29 39 26 39C26 34.71 26 30.42 26 26Z" fill="#199ED0"/>
<path d="M26 6C29.3747 6 31.4152 6.47938 33.957 8.74219C39 14.3501 39 14.3501 39 18C34.71 18 30.42 18 26 18C26 14.04 26 10.08 26 6Z" fill="#1EACDB"/>
<path d="M19.0001 27C19.0001 30.96 19.0001 34.92 19.0001 39C15.7001 39 12.4001 39 9.00012 39C8.57132 34.6262 8.51478 32.6517 11.1876 29.0625C14.0001 27 14.0001 27 19.0001 27Z" fill="#25BDE2"/>
<path d="M8.99995 6C12.2999 6 15.5999 6 18.9999 6C18.9999 9.96 18.9999 13.92 18.9999 18C13.9999 18 13.9999 18 11.1874 15.375C8.81527 12.2615 8.53282 9.92385 8.99995 6Z" fill="#2BCBE9"/>
</g>
<path d="M64.61 37V32.886H70.696C72.2373 32.886 73.586 32.5687 74.742 31.934C75.898 31.2767 76.7933 30.3587 77.428 29.18C78.0853 28.0013 78.414 26.6073 78.414 24.998C78.414 23.434 78.0853 22.074 77.428 20.918C76.7707 19.7393 75.864 18.8327 74.708 18.198C73.552 17.5407 72.2147 17.212 70.696 17.212H64.508V13.098H70.764C72.532 13.098 74.164 13.3927 75.66 13.982C77.1787 14.5713 78.4933 15.41 79.604 16.498C80.7373 17.5633 81.61 18.8213 82.222 20.272C82.8567 21.7227 83.174 23.3093 83.174 25.032C83.174 26.7547 82.8567 28.3527 82.222 29.826C81.61 31.2767 80.7487 32.546 79.638 33.634C78.5273 34.6993 77.2127 35.5267 75.694 36.116C74.198 36.7053 72.5773 37 70.832 37H64.61ZM61.448 37V13.098H66.072V37H61.448ZM94.0904 37.34C92.4357 37.34 90.9397 36.966 89.6024 36.218C88.2877 35.4473 87.2337 34.416 86.4404 33.124C85.6697 31.8093 85.2844 30.3473 85.2844 28.738C85.2844 27.1287 85.6697 25.6893 86.4404 24.42C87.2111 23.128 88.2651 22.108 89.6024 21.36C90.9397 20.5893 92.4244 20.204 94.0564 20.204C95.7337 20.204 97.2297 20.5893 98.5444 21.36C99.8817 22.108 100.936 23.128 101.706 24.42C102.477 25.6893 102.862 27.1287 102.862 28.738C102.862 30.3473 102.477 31.8093 101.706 33.124C100.936 34.416 99.8817 35.4473 98.5444 36.218C97.2297 36.966 95.7451 37.34 94.0904 37.34ZM94.0564 33.192C94.8951 33.192 95.6317 33.0107 96.2664 32.648C96.9237 32.2627 97.4224 31.7413 97.7624 31.084C98.1251 30.404 98.3064 29.6333 98.3064 28.772C98.3064 27.9107 98.1251 27.1513 97.7624 26.494C97.3997 25.8367 96.9011 25.3267 96.2664 24.964C95.6317 24.5787 94.8951 24.386 94.0564 24.386C93.2404 24.386 92.5151 24.5787 91.8804 24.964C91.2457 25.3267 90.7471 25.8367 90.3844 26.494C90.0217 27.1513 89.8404 27.9107 89.8404 28.772C89.8404 29.6333 90.0217 30.404 90.3844 31.084C90.7471 31.7413 91.2457 32.2627 91.8804 32.648C92.5151 33.0107 93.2404 33.192 94.0564 33.192ZM113.482 37.34C111.804 37.34 110.297 36.966 108.96 36.218C107.622 35.47 106.568 34.45 105.798 33.158C105.027 31.866 104.642 30.4153 104.642 28.806C104.642 27.174 105.027 25.712 105.798 24.42C106.568 23.128 107.622 22.108 108.96 21.36C110.32 20.5893 111.827 20.204 113.482 20.204C114.774 20.204 115.964 20.442 117.052 20.918C118.14 21.394 119.08 22.074 119.874 22.958L117.018 25.848C116.587 25.372 116.066 25.0093 115.454 24.76C114.864 24.5107 114.207 24.386 113.482 24.386C112.666 24.386 111.929 24.5787 111.272 24.964C110.637 25.3267 110.127 25.8367 109.742 26.494C109.379 27.1287 109.198 27.888 109.198 28.772C109.198 29.6333 109.379 30.404 109.742 31.084C110.127 31.7413 110.637 32.2627 111.272 32.648C111.929 33.0107 112.666 33.192 113.482 33.192C114.23 33.192 114.898 33.0673 115.488 32.818C116.1 32.546 116.621 32.1607 117.052 31.662L119.942 34.552C119.103 35.4587 118.14 36.15 117.052 36.626C115.964 37.102 114.774 37.34 113.482 37.34ZM131.576 37.34C130.398 37.34 129.332 37.102 128.38 36.626C127.428 36.1273 126.669 35.4587 126.102 34.62C125.536 33.7813 125.23 32.818 125.184 31.73V25.916C125.23 24.828 125.536 23.8647 126.102 23.026C126.692 22.1647 127.451 21.4847 128.38 20.986C129.332 20.4873 130.398 20.238 131.576 20.238C133.095 20.238 134.455 20.612 135.656 21.36C136.858 22.108 137.798 23.128 138.478 24.42C139.181 25.712 139.532 27.174 139.532 28.806C139.532 30.4153 139.181 31.866 138.478 33.158C137.798 34.45 136.858 35.47 135.656 36.218C134.455 36.966 133.095 37.34 131.576 37.34ZM122.464 43.868V20.578H126.918V24.896L126.17 28.874L126.884 32.852V43.868H122.464ZM130.794 33.226C131.61 33.226 132.336 33.0447 132.97 32.682C133.605 32.2967 134.092 31.7753 134.432 31.118C134.795 30.438 134.976 29.656 134.976 28.772C134.976 27.9107 134.795 27.1513 134.432 26.494C134.092 25.814 133.605 25.2927 132.97 24.93C132.336 24.5447 131.61 24.352 130.794 24.352C130.001 24.352 129.287 24.5447 128.652 24.93C128.018 25.2927 127.519 25.814 127.156 26.494C126.816 27.1513 126.646 27.9107 126.646 28.772C126.646 29.656 126.816 30.438 127.156 31.118C127.519 31.7753 128.006 32.2967 128.618 32.682C129.253 33.0447 129.978 33.226 130.794 33.226ZM142.452 37V12.418H146.906V37H142.452ZM157.857 37.34C156.406 37.34 155.114 37.034 153.981 36.422C152.87 35.81 151.998 34.96 151.363 33.872C150.728 32.784 150.411 31.526 150.411 30.098V20.578H154.899V29.996C154.899 30.676 155.012 31.2653 155.239 31.764C155.466 32.24 155.806 32.6027 156.259 32.852C156.712 33.1013 157.245 33.226 157.857 33.226C158.786 33.226 159.512 32.9427 160.033 32.376C160.554 31.8093 160.815 31.016 160.815 29.996V20.578H165.269V30.098C165.269 31.5487 164.952 32.818 164.317 33.906C163.705 34.994 162.832 35.844 161.699 36.456C160.588 37.0453 159.308 37.34 157.857 37.34ZM174.46 37.374C173.53 37.374 172.612 37.2493 171.706 37C170.822 36.7507 170.006 36.4107 169.258 35.98C168.51 35.5267 167.864 34.9827 167.32 34.348L169.972 31.662C170.538 32.2967 171.196 32.7727 171.944 33.09C172.692 33.4073 173.519 33.566 174.426 33.566C175.151 33.566 175.695 33.464 176.058 33.26C176.443 33.056 176.636 32.75 176.636 32.342C176.636 31.8887 176.432 31.5373 176.024 31.288C175.638 31.0387 175.128 30.8347 174.494 30.676C173.859 30.4947 173.19 30.302 172.488 30.098C171.808 29.8713 171.15 29.588 170.516 29.248C169.881 28.8853 169.36 28.398 168.952 27.786C168.566 27.1513 168.374 26.3353 168.374 25.338C168.374 24.2953 168.623 23.3887 169.122 22.618C169.643 21.8473 170.38 21.2467 171.332 20.816C172.284 20.3853 173.406 20.17 174.698 20.17C176.058 20.17 177.282 20.408 178.37 20.884C179.48 21.36 180.398 22.074 181.124 23.026L178.438 25.712C177.939 25.1 177.372 24.658 176.738 24.386C176.126 24.114 175.457 23.978 174.732 23.978C174.074 23.978 173.564 24.08 173.202 24.284C172.862 24.488 172.692 24.7713 172.692 25.134C172.692 25.542 172.884 25.8593 173.27 26.086C173.678 26.3127 174.199 26.5167 174.834 26.698C175.468 26.8567 176.126 27.0493 176.806 27.276C177.508 27.48 178.166 27.7747 178.778 28.16C179.412 28.5453 179.922 29.0553 180.308 29.69C180.716 30.3247 180.92 31.1407 180.92 32.138C180.92 33.7473 180.342 35.028 179.186 35.98C178.03 36.9093 176.454 37.374 174.46 37.374Z" fill="white"/>
<defs>
<clipPath id="clip0_1_12">
<rect width="46" height="46" fill="white"/>
</clipPath>
</defs>
</svg>
