<?xml version="1.0" encoding="UTF-8"?>
<svg version="1.1" xmlns="http://www.w3.org/2000/svg" width="46" height="46">
<path d="M0 0 C15.18 0 30.36 0 46 0 C46 15.18 46 30.36 46 46 C30.82 46 15.64 46 0 46 C0 30.82 0 15.64 0 0 Z " fill="#000304" transform="translate(0,0)"/>
<path d="M0 0 C4.29 0 8.58 0 13 0 C11.98012628 5.6659651 10.23446941 8.23611942 5.8515625 11.93359375 C4 13 4 13 0 13 C0 8.71 0 4.42 0 0 Z " fill="#189CCD" transform="translate(26,26)"/>
<path d="M0 0 C5.37893899 0.37527481 7.48326533 1.99482996 11 6 C11.66 6.66 12.32 7.32 13 8 C13 9.32 13 10.64 13 12 C8.71 12 4.42 12 0 12 C0 8.04 0 4.08 0 0 Z " fill="#1DA8D6" transform="translate(26,6)"/>
<path d="M0 0 C0 3.96 0 7.92 0 12 C-3.3 12 -6.6 12 -10 12 C-10.31390173 7.997753 -10.34116018 5.61671263 -8.375 2.0625 C-6 0 -6 0 0 0 Z " fill="#24BADF" transform="translate(19,27)"/>
<path d="M0 0 C3.3 0 6.6 0 10 0 C10 3.96 10 7.92 10 12 C6.6875 11.8125 6.6875 11.8125 3 11 C0.47509079 8.14929605 0.02771892 6.48970099 -0.1875 2.6875 C-0.125625 1.800625 -0.06375 0.91375 0 0 Z " fill="#2AC8E6" transform="translate(9,6)"/>
</svg>
